<svg width="166" height="166" viewBox="0 0 166 166" fill="none" xmlns="http://www.w3.org/2000/svg">
    <rect width="166" height="166" rx="36" fill="#faf9f5"/>
    <path d="M41.7 126.4c22.1-22.9 35.1-43.4 39-61.5 1.2-5.8 1.3-10.2.2-13.2-1-3-3.1-4.5-6.1-4.5-4.7 0-9.5 2.6-14.4 7.9-4.9 5.2-8.7 11.5-11.4 18.9-2.4 6.7-2.9 11.9-1.5 15.7 1.5 3.8 4.9 5.7 10.3 5.7 6.2 0 12.9-2.5 20.1-7.5l-4.4 14.8c-8.1 5.3-15.9 7.9-23.4 7.9-10.5 0-17.2-3.8-20.1-11.5-2.9-7.6-1.7-17.4 3.4-29.2 4.8-11 11.8-20 21.1-27 9.3-7 18.7-10.5 28.2-10.5 9.3 0 15.3 3.8 18 11.3 2.8 7.5 1.7 18.2-3.2 32-5.6 15.5-16.7 33-33.4 52.6l-22.4-1.9Z" fill="#173f25"/>
    <path d="M117.8 39.3c-16.3 17.1-26.1 32.6-29.3 46.7 7.6-6.9 15.7-10.4 24.2-10.4 9.7 0 16.1 3.8 19.2 11.5 3.1 7.7 2.2 17.3-2.7 28.8-4.7 11.1-11.7 20.1-21.1 26.9-9.4 6.9-19.4 10.3-30 10.3-10.7 0-17.8-4.1-21.1-12.2-3.3-8.2-2.7-19.8 1.9-35 6-19.7 18.6-42.5 37.9-68.4l21 1.8Zm-36.1 98.8c4.8 0 9.6-2.4 14.4-7.1 4.8-4.8 8.6-10.6 11.4-17.4 2.7-6.5 3.5-11.8 2.4-15.8-1.1-4-4-6-8.8-6-5.2 0-10.6 2.7-16.1 8.1-5.5 5.4-9.5 11.7-12 18.9-2.3 6.6-2.5 11.5-.7 14.6 1.8 3.1 4.9 4.7 9.4 4.7Z" fill="#173f25"/>
    <path d="M30 144c29-8 64-11.7 106-8.5" stroke="#173f25" stroke-width="8" stroke-linecap="round"/>
</svg>
