<?xml version="1.0" standalone="no"?>
<!DOCTYPE svg PUBLIC "-//W3C//DTD SVG 20010904//EN"
 "http://www.w3.org/TR/2001/REC-SVG-20010904/DTD/svg10.dtd">
<svg version="1.0" xmlns="http://www.w3.org/2000/svg"
 width="512.000000pt" height="512.000000pt" viewBox="0 0 512.000000 512.000000"
 preserveAspectRatio="xMidYMid meet">

<g transform="translate(0.000000,512.000000) scale(0.100000,-0.100000)"
fill="#285a35" stroke="none">
<path d="M4592 5080 c-265 -36 -564 -182 -872 -427 -139 -111 -410 -388 -527
-538 -166 -215 -375 -539 -477 -742 -240 -480 -339 -989 -256 -1323 73 -296
276 -489 580 -552 314 -66 710 89 1051 410 286 269 520 670 588 1010 63 311
16 545 -140 701 -110 111 -248 161 -439 161 -251 -1 -459 -80 -733 -280 -19
-14 -20 -14 -7 10 87 165 374 519 571 705 212 200 582 455 778 536 42 17 89
37 105 45 37 18 36 18 36 -10 0 -34 -41 -79 -111 -123 -40 -24 -56 -40 -50
-46 7 -7 15 -6 25 2 8 7 19 10 24 7 16 -10 116 58 149 102 75 99 64 242 -19
242 -28 0 -30 1 -14 13 16 12 16 14 -3 31 -12 11 -34 19 -49 18 -52 -1 -226
-49 -296 -81 -38 -17 -71 -29 -74 -26 -9 9 172 87 241 103 37 9 67 19 67 22
-1 31 -56 42 -148 30z m123 -450 c-3 -5 -12 -10 -18 -10 -7 0 -6 4 3 10 19 12
23 12 15 0z m-1010 -452 c-26 -29 -86 -92 -132 -139 -105 -107 -316 -391 -424
-569 -94 -155 -115 -182 -69 -91 111 222 333 519 575 769 88 90 126 113 50 30z
m-506 -180 c-64 -92 -151 -208 -156 -208 -3 0 3 12 12 28 29 43 157 212 162
212 2 0 -6 -15 -18 -32z m842 -619 c185 -62 167 -373 -43 -741 -85 -149 -174
-265 -303 -394 -249 -249 -476 -347 -611 -263 -74 46 -113 207 -93 387 35 317
198 585 487 802 220 164 445 248 563 209z m463 -636 c-21 -87 -100 -255 -171
-366 -98 -153 -295 -381 -398 -460 -33 -25 -29 -19 21 34 237 251 410 497 505
719 43 102 55 121 43 73z"/>
<path d="M1881 4749 c-194 -33 -456 -169 -699 -364 -134 -108 -351 -331 -445
-455 -244 -326 -377 -656 -378 -941 -1 -171 48 -304 150 -406 137 -137 333
-184 551 -133 114 27 319 129 438 219 50 38 92 67 92 64 0 -6 -350 -530 -404
-603 -169 -231 -472 -587 -656 -770 -89 -89 -154 -162 -167 -189 -22 -44 -22
-68 0 -54 7 4 18 8 25 9 7 1 33 19 58 39 81 67 57 29 -36 -55 -50 -46 -93 -93
-96 -106 -12 -48 53 -114 113 -114 29 0 106 43 152 84 13 11 22 17 19 11 -2
-5 -12 -28 -22 -49 -20 -45 -26 -117 -10 -123 6 -2 19 16 28 40 9 24 28 55 42
68 l26 24 -28 -52 c-38 -69 -29 -88 47 -89 100 -2 124 21 469 455 482 606
1012 1440 1240 1951 149 334 222 686 191 925 -28 211 -83 338 -201 456 -139
140 -299 191 -499 158z m211 -489 c12 -24 18 -58 18 -107 0 -208 -110 -498
-272 -715 -198 -265 -551 -532 -752 -569 -58 -11 -71 -10 -102 4 -51 25 -68
71 -61 172 26 401 540 1019 1010 1216 111 47 136 47 159 -1z m-1069 -124 c-15
-19 -80 -96 -143 -172 -155 -186 -168 -199 -119 -125 51 79 130 174 218 264
71 73 89 86 44 33z m881 -1543 c-15 -27 -50 -82 -77 -123 -368 -548 -515 -761
-567 -820 -23 -26 -4 3 351 525 124 182 244 360 268 398 50 78 64 89 25 20z
m-1484 -1568 c-18 -19 -36 -32 -39 -29 -6 6 54 64 66 64 4 0 -8 -16 -27 -35z"/>
<path d="M3610 1129 c-922 -36 -1749 -181 -2570 -451 -534 -175 -830 -328
-830 -429 0 -39 13 -38 121 10 49 22 89 38 89 36 0 -2 -42 -33 -94 -69 -140
-98 -160 -128 -118 -177 19 -22 46 -14 108 32 46 36 124 76 124 64 0 -2 -18
-14 -39 -25 -39 -19 -71 -54 -71 -76 0 -23 103 6 233 65 903 409 2057 691
3042 741 282 14 306 17 298 36 -3 8 1 14 8 14 10 0 10 3 2 11 -7 7 -72 13
-162 17 -83 3 -149 7 -147 10 13 13 344 34 631 41 176 4 300 9 275 10 -111 7
-82 18 40 15 l135 -3 -95 14 c-158 25 -694 30 -1013 11 -147 -9 -274 -19 -282
-22 -8 -4 -15 -1 -15 5 0 6 9 11 20 11 10 0 97 9 192 20 150 17 379 35 710 57
48 3 85 9 83 13 -12 19 -405 30 -675 19z"/>
</g>
</svg>
